<svg width="1707" height="1643" viewBox="0 0 1707 1643" fill="none" xmlns="http://www.w3.org/2000/svg">
<g clip-path="url(#clip0_11_2)">
<path d="M1125.73 2.5332C1029.07 25.3332 953.466 105.467 916.933 224C899.866 279.333 892.4 348 898 398C908.933 496.8 955.6 574.267 1024.8 609.067C1064 628.8 1102.8 632.133 1139.33 619.2C1164.93 610.133 1199.47 589.867 1222 570.667C1281.87 519.867 1324.53 441.6 1340.53 353.333C1346 323.067 1347.33 307.733 1347.2 274C1347.2 209.467 1338.13 162.4 1318 120.667C1287.33 57.1998 1238.8 15.5999 1181.07 3.19987C1165.2 -0.133464 1138.8 -0.40013 1125.73 2.5332Z" fill="#FFB13A"/>
<path d="M509.333 8.66689C455.867 18.0002 405.467 60.1336 375.467 120.534C359.067 153.467 351.333 185.067 347.867 233.467C346.267 254.667 347.067 288.667 349.467 310C363.2 431.067 419.733 533.067 504.933 590.134C522 601.6 550.267 615.6 569.467 622C583.067 626.534 586.533 627.067 601.6 627.734C621.6 628.534 635.867 626.667 653.333 621.067C680.4 612.4 702.533 598.8 723.333 578C764.533 536.8 790.133 474.667 796.133 401.6C798.533 371.467 795.867 326.667 789.333 291.6C763.2 149.334 681.467 44.0002 573.2 12.8002C551.6 6.66689 529.467 5.20023 509.333 8.66689Z" fill="#FFB13A"/>
<path d="M1520.4 495.2C1431.2 509.867 1353.6 571.333 1305.2 665.867C1282.93 709.467 1271.73 744.933 1263.07 800.133C1260 819.867 1259.47 827.333 1259.47 850C1259.47 877.733 1261.07 891.467 1266.8 913.867C1282.13 974 1318.27 1022.93 1363.2 1044.67C1387.73 1056.53 1410.13 1060.93 1435.33 1058.67C1496.53 1053.33 1551.07 1025.73 1599.6 975.6C1653.07 920.267 1689.87 843.733 1701.87 763.333C1704.93 743.333 1707.07 703.867 1706.13 687.733C1701.2 604.8 1656.67 531.867 1594.67 505.2C1570.67 494.933 1544.27 491.333 1520.4 495.2Z" fill="#FFB13A"/>
<path d="M140.133 530.133C82.1331 539.867 33.3331 580.4 15.3331 634C8.93307 652.934 3.59973 680 1.33307 704.667C-6.9336 794.134 24.5331 895.2 83.7331 969.334C128 1024.67 185.066 1062.93 248.933 1080.13C302.666 1094.53 350.933 1080.93 391.866 1040C428.4 1003.47 446.666 950.134 446.666 879.867C446.666 852.534 445.333 837.6 440.533 812.267C424.266 725.334 374.933 642.134 307.333 587.6C276.266 562.534 234.4 539.467 208 532.933C187.2 527.733 160.933 526.667 140.133 530.133Z" fill="#FFB13A"/>
<path d="M832 855.333C785.6 860.533 739.733 872.933 694.533 892.8C625.466 923.333 558.8 974.133 515.733 1029.33C422.8 1148.53 358.266 1277.6 332 1396.67C330.4 1404 327.6 1415.07 325.866 1421.33C316.933 1453.73 318.4 1490.53 330 1522.67C348.666 1574.4 389.066 1614.53 439.066 1631.33C468.933 1641.33 513.6 1641.2 563.333 1630.8C595.733 1624.13 620 1616.4 688.8 1590.93C784.533 1555.33 811.066 1548.53 875.466 1542.53C904.266 1539.87 909.466 1539.73 929.333 1541.2C980.133 1544.8 1020.27 1555.87 1097.33 1587.33C1165.6 1615.2 1203.73 1630.27 1213.33 1632.93C1309.33 1660.13 1404.67 1626.67 1437.33 1554.27C1451.6 1522.4 1453.2 1470.53 1441.2 1421.33C1429.47 1373.47 1394.67 1295.73 1361.33 1243.33C1267.33 1095.33 1200.27 1013.07 1122.67 950.4C1049.73 891.6 988.533 863.733 913.2 855.333C892 852.933 853.6 852.933 832 855.333Z" fill="#FFB13A"/>
</g>
<defs>
<clipPath id="clip0_11_2">
<rect width="1706.67" height="1642.67" fill="white"/>
</clipPath>
</defs>
</svg>
